<?xml version="1.0" encoding="UTF-8" standalone="no"?>
<!DOCTYPE svg PUBLIC "-//W3C//DTD SVG 1.1//EN" "http://www.w3.org/Graphics/SVG/1.1/DTD/svg11.dtd">
<svg width="100%" height="100%" viewBox="0 0 1200 1200" version="1.1" xmlns="http://www.w3.org/2000/svg" xmlns:xlink="http://www.w3.org/1999/xlink" xml:space="preserve" xmlns:serif="http://www.serif.com/" style="fill-rule:evenodd;clip-rule:evenodd;stroke-linejoin:round;stroke-miterlimit:2;">
    <g id="NCP-Mouse" serif:id="NCP Mouse" transform="matrix(1.93822,0,0,1.93822,-7.50066,-16.89)">
        <g transform="matrix(1,0,0,1,1.5,-88.5)">
            <path d="M225.36,159.55C210.3,163.69 200.64,169.84 185.07,185.28C176.79,193.56 167.75,203.98 163.99,209.75C157.59,219.29 156.96,219.92 149.56,222.43C116.68,233.85 79.9,260.08 53.67,291.08C33.46,314.93 19.53,337.27 19.53,345.8C19.53,351.82 25.18,360.86 32.33,366.13C46.26,376.42 75.75,386.84 116.17,395.62C161.35,405.41 189.46,422.1 211.8,452.35C214.56,456.12 216.57,459.25 216.32,459.63C215.94,459.88 207.91,458.88 198.25,457.5C142.1,449.03 77.71,469.79 66.52,533.03C54.7,599.84 114.1,640.26 171.39,652.41C188.96,656.05 230.5,656.43 253.6,653.04C302.92,645.64 349.36,632.46 386.76,615.14C393.41,612 399.44,609.49 400.06,609.49C400.68,609.49 405.08,611.75 409.6,614.38C431.69,627.31 452.65,636.47 471.98,641.74C527.51,657.06 595.65,632.11 603.71,568.86C608.78,529.13 582.44,484.64 542.52,474.45C540.64,474.07 539.26,473.32 539.51,472.82C567.05,421.46 568.43,357.33 538.96,306.5C515.35,265.78 475.23,235.81 430.66,220.69C404,211.65 375.78,207.72 347.67,208.01C333.17,208.16 318.74,209.51 304.41,211.7C300.68,212.27 278.17,217.12 275.69,214.64C275.44,214.39 274.94,210.37 274.69,205.73C273.43,186.53 269.92,175.86 262.14,168.33C252.85,159.42 238.67,156.03 225.36,159.54L225.36,159.55ZM246.57,186.03C258.37,195.94 253.47,224.06 236.4,244.64C231.13,250.92 230.63,254.68 234.89,255.31C236.4,255.56 243.42,253.68 250.58,251.17C301.28,233.47 352.62,228.7 397.8,237.49C419.39,241.76 445.74,252.8 465.7,265.85C477.5,273.51 495.44,290.45 504.1,302C517.65,319.95 528.7,347.31 531.71,370.4C533.47,384.21 532.46,410.69 529.7,423.74C527.19,434.91 520.79,451.6 514.51,462.9L509.99,471.18L500.95,472.06C496.06,472.56 480.62,475.07 466.81,477.83C452.88,480.47 436.19,483.35 429.66,484.11C377.07,490.51 334.53,460.39 332.27,414.96C331.14,389.23 341.43,367.77 363.77,349.82C372.18,343.04 373.81,340.03 370.3,337.14C368.79,335.88 366.66,336.39 358.88,340.15C330.01,353.83 312.44,380.06 309.93,413.19C309.3,421.35 309.68,425.99 311.94,435.66C318.72,465.28 336.54,487.62 363.77,500.29C379.08,507.44 386.86,509.2 406.69,509.95C425.64,510.7 440.45,509.07 467.56,503.42C488.64,499.15 491.41,498.78 491.41,500.28C491.41,501.03 483.38,509.69 473.59,519.48C454.64,538.43 436.57,552.74 415.23,565.67L402.55,573.33L390,565.05C377.83,557.02 352.1,537.94 313.82,508.57C303.53,500.54 287.97,489.37 279.56,483.72L264,473.3L253.21,457.61C240.53,439.04 220.7,418.58 206.02,408.66C184.43,394.23 148.04,379.79 111.14,371.01C67.09,360.47 47.13,351.31 47.13,341.64C47.13,337.25 51.77,329.84 64.07,314.41C91.81,280.02 127.83,253.79 161.59,243.5C173.51,239.99 173.89,239.73 176.9,234.21C181.42,226.05 191.46,212 198.24,204.47C214.68,186.27 236.77,177.74 246.56,186.02L246.57,186.02L246.57,186.03ZM181.06,483.35C215.07,488.5 256.11,508.95 318.24,551.88C335.18,563.55 370.95,589.91 370.95,590.66C370.95,591.92 350.12,600.45 329.91,607.35C313.85,612.87 279.83,622.03 268.04,623.92C264.9,624.42 261.26,625.05 259.88,625.3C239.8,629.32 197.5,628.94 177.42,624.67C129.85,614.38 97.85,589.4 93.71,559.28C90.7,537.82 96.35,518.24 109.4,504.18C120.44,492.26 134.75,485.1 152.82,482.84C164.74,481.21 166.88,481.33 181.06,483.34L181.06,483.35ZM543.64,505.32C563.34,514.98 575.39,535.32 575.52,558.66C575.52,574.72 570.25,587.4 558.7,598.95C533.22,624.43 488.54,624.68 443.24,599.45C427.93,591.04 428.18,592.3 440.73,583.76C468.59,564.93 491.43,542.85 515.78,511.09L524.44,500.05L529.96,500.68C532.97,500.93 539.12,503.06 543.64,505.32Z" style="fill:rgb(255,177,0);fill-rule:nonzero;"/>
        </g>
        <g id="path4" transform="matrix(1,0,0,1,1.5,-88.5)">
            <path d="M342.32,355.57L361.06,343.13C361.06,343.13 361.12,343.08 361.15,343.06C362.24,342.25 362.48,340.69 361.67,339.6C361.59,339.49 361.49,339.38 361.39,339.29L344.92,323.67L353.41,321.14C354.1,320.93 354.59,320.32 354.63,319.59L355.98,288.1L361.34,291C362.09,291.4 363.02,291.18 363.52,290.48L372.6,277.72L378.6,290.84C378.94,291.57 379.75,291.97 380.53,291.77L387.33,290.14L384.4,306.03C384.32,306.49 384.43,306.96 384.71,307.33C385.26,308.08 386.33,308.23 387.08,307.69C387.16,307.62 387.25,307.56 387.32,307.47L406.16,286.9L407.28,296.67C407.32,296.97 407.42,297.26 407.6,297.5C407.99,298.01 408.62,298.27 409.25,298.16L428.04,295L419.55,312.05C419.26,312.62 419.32,313.31 419.7,313.82C419.88,314.06 420.12,314.25 420.39,314.36L429.41,318.27L404.25,330.31C404.16,330.36 404.06,330.41 403.97,330.48C403.22,331.03 403.07,332.1 403.61,332.85C403.88,333.22 404.3,333.46 404.77,333.53L420.82,335.34L417.28,341.37C416.88,342.06 417.02,342.95 417.62,343.49L428.43,353.04L413.58,358.02C412.78,358.29 412.29,359.12 412.45,359.96L413.66,365.93L383.14,358.06C382.44,357.88 381.7,358.17 381.3,358.77L376.41,366.15L366.25,345.84C366.19,345.72 366.11,345.59 366.03,345.48C365.22,344.39 363.66,344.15 362.57,344.96C362.54,344.98 362.51,345.01 362.48,345.03L345.14,359.35L342.35,355.59L342.33,355.59L342.33,355.57L342.32,355.57Z" style="fill:rgb(255,177,0);fill-rule:nonzero;"/>
        </g>
        <g transform="matrix(1,0,0,1,1.5,-88.5)">
            <path d="M121.75,292.92C116.69,294.66 112.77,299.97 112.29,305.2C111.75,311.14 115.65,317.3 121.36,319.04C123.9,319.82 126.67,319.76 129.21,318.97C135.39,317.05 139.77,310.4 138.93,303.99C138.06,297.35 131.9,292.39 125.33,292.32C124.1,292.31 122.9,292.52 121.76,292.91L121.75,292.92Z" style="fill:rgb(255,177,0);fill-rule:nonzero;"/>
        </g>
    </g>
</svg>
